{
  "title": "Home 2015 READNFO CAM X264 AC3 TiTAN",
  "uid": 11806547,
  "size": 1072095512,
  "categoryP": "video",
  "categoryS": "movies",
  "magnet": "?xt=urn:btih:c81471014d5017aaeaddd777a64800190d79dd0d&amp;dn=Home+2015+READNFO+CAM+X264+AC3+TiTAN&amp;tr=udp%3A%2F%2Ftracker.openbittorrent.com%3A80&amp;tr=udp%3A%2F%2Fopen.demonii.com%3A1337&amp;tr=udp%3A%2F%2Ftracker.coppersurfer.tk%3A6969&amp;tr=udp%3A%2F%2Fexodus.desync.com%3A6969",
  "seeders": 351,
  "leechers": 6,
  "uploader": "xxxlavalxxx",
  "files": 3,
  "time": 1428617378,
  "description": " &lt;a href=&quot;http://extraimago.com/image/wEB&quot; rel=&quot;nofollow&quot; target=&quot;_NEW&quot;&gt;http://extraimago.com/image/wEB&lt;/a&gt;\n &lt;a href=&quot;\nhttp://www.imdb.com/title/tt2224026/&quot; rel=&quot;nofollow&quot; target=&quot;_NEW&quot;&gt;\nhttp://www.imdb.com/title/tt2224026/&lt;/a&gt;\n\n\nWhen Oh, a loveable misfit from another planet, lands on Earth and finds himself on the run from his own people, he forms an unlikely friendship with an adventurous girl named Tip who is on a quest of her own. Through a series of comic adventures with Tip, Oh comes to understand that being different and making mistakes is all part of being human. And while he changes her planet and she changes his world, they discover the true meaning of the word HOME.\n\nDirector: Tim Johnson\nWriters: Tom J. Astle (screenplay), Matt Ember (screenplay)\nStars: Jim Parsons, Rihanna, Steve Martin \nGenres: Animation | Adventure | Comedy | Family | Fantasy | Sci-Fi\nCountry: USA\nLanguage: English\n\n\nSource: ACAB {big thx and much respect}\n\nPretty nice vid and audio, is missing first two min of movie, and is a little dark at times.. but still a very watchable cam.. Enjoy\n\nGeneral\n\nFormat                                   : Matroska\nFormat version                           : Version 2\nFile size                                : 1 022 MiB\nDuration                                 : 1h 21mn\nOverall bit rate mode                    : Variable\nOverall bit rate                         : 1 763 Kbps\nEncoded date                             : UTC 2015-04-09 18:56:57\n\nVideo\nID                                       : 1\nFormat                                   : AVC\nFormat/Info                              : Advanced Video Codec\nFormat profile                           : &lt;a class=&quot;__cf_email__&quot; href=&quot;/cdn-cgi/l/email-protection&quot; data-cfemail=&quot;96defff1fed6daa2b8a7&quot;&gt;[email&amp;#160;protected]&lt;/a&gt;&lt;script cf-hash='f9e31' type=&quot;text/javascript&quot;&gt;\n/* &lt;![CDATA[ */!function(){try{var t=&quot;currentScript&quot;in document?document.currentScript:function(){for(var t=document.getElementsByTagName(&quot;script&quot;),e=t.length;e--;)if(t[e].getAttribute(&quot;cf-hash&quot;))return t[e]}();if(t&amp;&amp;t.previousSibling){var e,r,n,i,c=t.previousSibling,a=c.getAttribute(&quot;data-cfemail&quot;);if(a){for(e=&quot;&quot;,r=parseInt(a.substr(0,2),16),n=2;a.length-n;n+=2)i=parseInt(a.substr(n,2),16)^r,e+=String.fromCharCode(i);e=document.createTextNode(e),c.parentNode.replaceChild(e,c)}}}catch(u){}}();/* ]]&gt; */&lt;/script&gt;\nFormat settings, CABAC                   : Yes\nFormat settings, ReFrames                : 3 frames\nCodec ID                                 : V_MPEG4/ISO/AVC\nDuration                                 : 1h 21mn\nBit rate mode                            : Variable\nBit rate                                 : 1 504 Kbps\nMaximum bit rate                         : 40.0 Mbps\nWidth                                    : 720 pixels\nHeight                                   : 400 pixels\nDisplay aspect ratio                     : 16:9\nFrame rate mode                          : Constant\nFrame rate                               : 23.976 fps\nColor space                              : YUV\nChroma subsampling                       : 4:2:0\nBit depth                                : 8 bits\nScan type                                : Progressive\nBits/(Pixel*Frame)                       : 0.218\nStream size                              : 872 MiB (85%)\nDefault                                  : Yes\nForced                                   : No\nColor primaries                          : BT.709\nTransfer characteristics                 : BT.709\nMatrix coefficients                      : BT.709\n\nAudio\nID                                       : 2\nFormat                                   : AC-3\nFormat/Info                              : Audio Coding 3\nMode extension                           : CM (complete main)\nFormat settings, Endianness              : Big\nCodec ID                                 : A_AC3\nDuration                                 : 1h 21mn\nBit rate mode                            : Constant\nBit rate                                 : 224 Kbps\nChannel(s)                               : 6 channels\nChannel positions                        : Front: L C R, Side: L R, LFE\nSampling rate                            : 48.0 KHz\nBit depth                                : 16 bits\nCompression mode                         : Lossy\nDelay relative to video                  : 100ms\nStream size                              : 130 MiB (13%)\nDefault                                  : Yes\nForced                                   : No\n\n &lt;a href=&quot;\nhttp://extraimago.com/image/wEC&quot; rel=&quot;nofollow&quot; target=&quot;_NEW&quot;&gt;\nhttp://extraimago.com/image/wEC&lt;/a&gt; &lt;a href=&quot;\nhttp://extraimago.com/image/wEY&quot; rel=&quot;nofollow&quot; target=&quot;_NEW&quot;&gt;\nhttp://extraimago.com/image/wEY&lt;/a&gt; &lt;a href=&quot;\nhttp://extraimago.com/image/wEp&quot; rel=&quot;nofollow&quot; target=&quot;_NEW&quot;&gt;\nhttp://extraimago.com/image/wEp&lt;/a&gt; &lt;a href=&quot;\nhttp://extraimago.com/image/wEr&quot; rel=&quot;nofollow&quot; target=&quot;_NEW&quot;&gt;\nhttp://extraimago.com/image/wEr&lt;/a&gt; &lt;a href=&quot;\nhttp://extraimago.com/image/wEG&quot; rel=&quot;nofollow&quot; target=&quot;_NEW&quot;&gt;\nhttp://extraimago.com/image/wEG&lt;/a&gt; &lt;a href=&quot;\nhttp://extraimago.com/image/wEP&quot; rel=&quot;nofollow&quot; target=&quot;_NEW&quot;&gt;\nhttp://extraimago.com/image/wEP&lt;/a&gt; &lt;a href=&quot;\nhttp://extraimago.com/image/wEX&quot; rel=&quot;nofollow&quot; target=&quot;_NEW&quot;&gt;\nhttp://extraimago.com/image/wEX&lt;/a&gt; &lt;a href=&quot;\nhttp://extraimago.com/image/wEg&quot; rel=&quot;nofollow&quot; target=&quot;_NEW&quot;&gt;\nhttp://extraimago.com/image/wEg&lt;/a&gt;",
  "parsed": {
    "xt": "urn:btih:c81471014d5017aaeaddd777a64800190d79dd0d",
    "dn": "Home 2015 READNFO CAM X264 AC3 TiTAN",
    "tr": [
      "udp://exodus.desync.com:6969",
      "udp://open.demonii.com:1337",
      "udp://tracker.coppersurfer.tk:6969",
      "udp://tracker.openbittorrent.com:80"
    ],
    "infoHash": "c81471014d5017aaeaddd777a64800190d79dd0d",
    "infoHashBuffer": {
      "type": "Buffer",
      "data": [
        200,
        20,
        113,
        1,
        77,
        80,
        23,
        170,
        234,
        221,
        215,
        119,
        166,
        72,
        0,
        25,
        13,
        121,
        221,
        13
      ]
    },
    "name": "Home 2015 READNFO CAM X264 AC3 TiTAN",
    "announce": [
      "udp://exodus.desync.com:6969",
      "udp://open.demonii.com:1337",
      "udp://tracker.coppersurfer.tk:6969",
      "udp://tracker.openbittorrent.com:80"
    ],
    "urlList": []
  },
  "previous": 20,
  "peers": 4,
  "last_updated": "2016-12-27T12:51:20.910Z"
}